<svg width="138" height="24" viewBox="0 0 138 24" fill="none" xmlns="http://www.w3.org/2000/svg">
<path d="M125.888 1L128.91 8.59493L137 9.14861L130.777 14.3962L132.755 22.3333L125.888 17.9816L119.021 22.3333L121 14.3962L114.777 9.14861L122.867 8.59493L125.888 1Z" stroke="#FEC12A" stroke-width="2" stroke-linecap="round" stroke-linejoin="round"/>
<path d="M40.5564 1L43.5779 8.59493L51.6675 9.14861L45.4453 14.3962L47.4235 22.3333L40.5564 17.9816L33.6894 22.3333L35.6675 14.3962L29.4453 9.14861L37.5349 8.59493L40.5564 1Z" fill="#FEC12A" stroke="#FEC12A" stroke-width="2" stroke-linecap="round" stroke-linejoin="round"/>
<path d="M68.9998 1L72.0213 8.59493L80.1109 9.14861L73.8887 14.3962L75.8668 22.3333L68.9998 17.9816L62.1327 22.3333L64.1109 14.3962L57.8887 9.14861L65.9783 8.59493L68.9998 1Z" fill="#FEC12A" stroke="#FEC12A" stroke-width="2" stroke-linecap="round" stroke-linejoin="round"/>
<path d="M97.4451 1L100.467 8.59493L108.556 9.14861L102.334 14.3962L104.312 22.3333L97.4451 17.9816L90.578 22.3333L92.5562 14.3962L86.334 9.14861L94.4236 8.59493L97.4451 1Z" fill="#FEC12A" stroke="#FEC12A" stroke-width="2" stroke-linecap="round" stroke-linejoin="round"/>
<path d="M12.1111 1L15.1326 8.59493L23.2222 9.14861L17 14.3962L18.9782 22.3333L12.1111 17.9816L5.24407 22.3333L7.22222 14.3962L1 9.14861L9.08961 8.59493L12.1111 1Z" fill="#FEC12A" stroke="#FEC12A" stroke-width="2" stroke-linecap="round" stroke-linejoin="round"/>
</svg>
